# xmcd CD database file
#
# Track frame offsets:
#	150
#	12665
#	26807
#	40647
#	54487
#	68115
#	81142
#	99650
#	114005
#	126077
#	138394
#	152794
#	165764
#	179807
#	220595
#	232720
#	284268
#	317030
#	335143
#
# Disc length: 4664 seconds
#
# Revision: 0
# Processed by: cddbd v1.5.1PL2 Copyright (c) Steve Scherf et al.
# Submitted via: CDex 1.51
#
DISCID=01123613
DTITLE=Various Artist - Name Band and One More Time
DYEAR=1900
DGENRE=Jazz
TTITLE0=Bob Florence - Little Girl (Master)
TTITLE1=Bob Florence - Baby Come Here (Master)
TTITLE2=Bob Florence - I Wanna Hear Swing Songs (Master)
TTITLE3=Bob Florence - Give A Listen (Master)
TTITLE4=Bob Florence - Undecided (Master)
TTITLE5=Bob Florence - Easy Does It (Master)
TTITLE6=Bob Florence - End Of A Love Affair (Master)
TTITLE7=Bob Florence - Everything I've Got Belongs To You (Master)
TTITLE8=Bob Florence - Southern Fried (Master)
TTITLE9=Bob Florence - Under Paris Skies (Master)
TTITLE10=Bob Florence - Pastel Blue
TTITLE11=Bob Florence - I'll Remember April
TTITLE12=Terry Gibbs - Back Bay Shuffle
TTITLE13=Terry Gibbs Dream Band Volume 6 - Opus One (Oliver-Garris) Maini, Kennedy, Gibbs, Enevoldsen arr: Paich
TTITLE14=Terry Gibbs Dream Band Volume 6 - I Remember You (Schertzinger-Mercer) Candoli arr: Wes Hensel
TTITLE15=Terry Gibbs Dream Band Volume 6 - Flying Home (Goodman-Hampton) Levy, Gibbs, Katzman, Williamson, Candoli, Perk
TTITLE16=Terry Gibbs Dream Band Volume 6 - The Fat Man (Gibbs) Gibbs, Candoli arr: Albam
TTITLE17=Terry Gibbs Dream Band Volume 6 - Just Plain Meyer (Brookmeyer) Jolly, Gibbs, Flory arr: Brookmeyer
TTITLE18=Terry Gibbs - The Claw
EXTD=
EXTT0=
EXTT1=
EXTT2=
EXTT3=
EXTT4=
EXTT5=
EXTT6=
EXTT7=
EXTT8=
EXTT9=
EXTT10=
EXTT11=
EXTT12=
EXTT13=
EXTT14=
EXTT15=
EXTT16=
EXTT17=
EXTT18=
PLAYORDER=
